<svg xmlns="http://www.w3.org/2000/svg" viewBox="0 0 648.04 141.73"><defs><style>.cls-1{fill:#e63332;}.cls-2{fill:#214960;}.cls-3{fill:#fff;}</style></defs><g id="Repères"><rect class="cls-1" width="648.04" height="98.38"/><rect class="cls-2" y="98.38" width="648.04" height="43.35"/><path class="cls-3" d="M25.51,72.87V25.43H38.39V62.5H57.57V72.87Z" transform="translate(0 0)"/><path class="cls-3" d="M67.65,25.43V31a12,12,0,0,1-.91,4.53,19.66,19.66,0,0,1-2.32,4.19,18.88,18.88,0,0,1-2.88,3.23l-5.28-2.68A22.14,22.14,0,0,0,58,36.39a16.59,16.59,0,0,0,.77-5.4V25.43Z" transform="translate(0 0)"/><path class="cls-3" d="M70.41,72.87V25.43H83.29V44h17V25.43h12.88V72.87H100.34V54.34h-17V72.87Z" transform="translate(0 0)"/><path class="cls-3" d="M133.31,73.52a20.59,20.59,0,0,1-9.81-2.19,15.06,15.06,0,0,1-6.32-6.3A20.48,20.48,0,0,1,115,55.17a20,20,0,0,1,2.23-9.63,15.84,15.84,0,0,1,6.28-6.42A19.08,19.08,0,0,1,133,36.83a20.36,20.36,0,0,1,7.3,1.25,15.27,15.27,0,0,1,5.58,3.62,16.12,16.12,0,0,1,3.57,5.76,22,22,0,0,1,1.25,7.62v3H119V51h20a5,5,0,0,0-.77-2.7,5.25,5.25,0,0,0-2-1.83,6.06,6.06,0,0,0-2.86-.66,6.22,6.22,0,0,0-2.85.66,5.43,5.43,0,0,0-2.07,1.81,5,5,0,0,0-.82,2.72V58.6a6.46,6.46,0,0,0,.71,3.06,5.19,5.19,0,0,0,2.07,2.11,6.42,6.42,0,0,0,3.24.76,7.45,7.45,0,0,0,2.42-.37,5.32,5.32,0,0,0,1.89-1.07,4.37,4.37,0,0,0,1.16-1.71h11.67a13.19,13.19,0,0,1-2.85,6.43A14.67,14.67,0,0,1,141.94,72,23,23,0,0,1,133.31,73.52Z" transform="translate(0 0)"/><path class="cls-3" d="M152.47,72.87V25.43h12.79V43.5h.19a10.92,10.92,0,0,1,2-3.32,9.86,9.86,0,0,1,3.34-2.44,11,11,0,0,1,4.63-.91,13,13,0,0,1,6.71,1.87,13.73,13.73,0,0,1,5.19,5.91,23.68,23.68,0,0,1,2,10.47,24,24,0,0,1-1.91,10.22,13.72,13.72,0,0,1-5.1,6,12.89,12.89,0,0,1-7,2,11.4,11.4,0,0,1-4.46-.83,9.86,9.86,0,0,1-3.34-2.24A10.25,10.25,0,0,1,165.45,67h-.28v5.83ZM165,55.08a13,13,0,0,0,.69,4.48,6.44,6.44,0,0,0,1.94,2.92,5,5,0,0,0,6,0,6.32,6.32,0,0,0,1.9-2.9,13.79,13.79,0,0,0,.66-4.53,13.79,13.79,0,0,0-.66-4.53,6.29,6.29,0,0,0-1.9-2.89,4.59,4.59,0,0,0-3-1,4.7,4.7,0,0,0-3,1,6.34,6.34,0,0,0-1.94,2.89A13.24,13.24,0,0,0,165,55.08Z" transform="translate(0 0)"/><path class="cls-3" d="M204.34,73.34a12.89,12.89,0,0,1-7-2,13.85,13.85,0,0,1-5.1-6,24,24,0,0,1-1.91-10.22,23.53,23.53,0,0,1,2-10.47,13.6,13.6,0,0,1,5.19-5.91,13,13,0,0,1,6.7-1.87,11,11,0,0,1,4.63.91,9.86,9.86,0,0,1,3.34,2.44,10.76,10.76,0,0,1,2,3.32h.18V25.43h12.79V72.87H214.54V67h-.28a10.28,10.28,0,0,1-2.12,3.23,9.77,9.77,0,0,1-3.34,2.24A11.37,11.37,0,0,1,204.34,73.34Zm4.73-9.83a4.61,4.61,0,0,0,3-1A6.54,6.54,0,0,0,214,59.56a13.28,13.28,0,0,0,.68-4.48,13.5,13.5,0,0,0-.68-4.53,6.44,6.44,0,0,0-1.95-2.89,4.7,4.7,0,0,0-3-1,4.63,4.63,0,0,0-3,1,6.29,6.29,0,0,0-1.9,2.89,13.79,13.79,0,0,0-.66,4.53,13.79,13.79,0,0,0,.66,4.53,6.32,6.32,0,0,0,1.9,2.9A4.62,4.62,0,0,0,209.07,63.51Z" transform="translate(0 0)"/><path class="cls-3" d="M247.41,73.52a20.08,20.08,0,0,1-9.91-2.3,15.76,15.76,0,0,1-6.33-6.44,20.25,20.25,0,0,1-2.2-9.61,20.23,20.23,0,0,1,2.2-9.6,15.76,15.76,0,0,1,6.33-6.44,22.52,22.52,0,0,1,19.83,0,15.8,15.8,0,0,1,6.32,6.44,20.12,20.12,0,0,1,2.2,9.6,20.13,20.13,0,0,1-2.2,9.61,15.8,15.8,0,0,1-6.32,6.44A20.12,20.12,0,0,1,247.41,73.52Zm.09-9.45A4,4,0,0,0,250.31,63a7.08,7.08,0,0,0,1.83-3.1,15.83,15.83,0,0,0,.65-4.8,15.7,15.7,0,0,0-.65-4.8,7.14,7.14,0,0,0-1.83-3.1,4,4,0,0,0-2.81-1.09,4.31,4.31,0,0,0-2.94,1.09,6.82,6.82,0,0,0-1.87,3.1,15.39,15.39,0,0,0-.65,4.8,15.52,15.52,0,0,0,.65,4.8,6.77,6.77,0,0,0,1.87,3.1A4.27,4.27,0,0,0,247.5,64.07Z" transform="translate(0 0)"/><path class="cls-3" d="M290.37,73.34a12.92,12.92,0,0,1-7-2,13.77,13.77,0,0,1-5.09-6,23.87,23.87,0,0,1-1.91-10.22,23.54,23.54,0,0,1,2-10.47,13.67,13.67,0,0,1,5.19-5.91,13,13,0,0,1,6.71-1.87,11,11,0,0,1,4.63.91,9.72,9.72,0,0,1,3.33,2.44,10.76,10.76,0,0,1,2,3.32h.19V25.43h12.78V72.87H300.56V67h-.28a10.11,10.11,0,0,1-2.12,3.23,9.82,9.82,0,0,1-3.33,2.24A11.4,11.4,0,0,1,290.37,73.34Zm4.72-9.83a4.64,4.64,0,0,0,3-1,6.44,6.44,0,0,0,1.94-2.92,13,13,0,0,0,.69-4.48,13.24,13.24,0,0,0-.69-4.53,6.34,6.34,0,0,0-1.94-2.89,4.73,4.73,0,0,0-3-1,4.63,4.63,0,0,0-3,1,6.37,6.37,0,0,0-1.9,2.89,13.79,13.79,0,0,0-.66,4.53,13.79,13.79,0,0,0,.66,4.53,6.4,6.4,0,0,0,1.9,2.9A4.62,4.62,0,0,0,295.09,63.51Z" transform="translate(0 0)"/><path class="cls-3" d="M339.37,57.31v-20h12.78V72.87H340V66.11h-.37a10.14,10.14,0,0,1-4.06,5.32,13.28,13.28,0,0,1-13.4.19,11.69,11.69,0,0,1-4.33-4.72A15.06,15.06,0,0,1,316.3,60V37.29h12.78v20a6.12,6.12,0,0,0,1.36,4.14A4.71,4.71,0,0,0,334.18,63a5.37,5.37,0,0,0,2.77-.69,4.51,4.51,0,0,0,1.8-1.94A6.44,6.44,0,0,0,339.37,57.31Z" transform="translate(0 0)"/><path class="cls-3" d="M364.9,72.87V25.43h33.36V35.81H377.78V44h18.44V54.34H377.78V72.87Z" transform="translate(0 0)"/><path class="cls-3" d="M399.91,72.87V37.29H412.7V72.87Zm6.39-39.29a6.34,6.34,0,0,1-4.45-1.71,5.52,5.52,0,0,1,0-8.25,6.66,6.66,0,0,1,8.91,0,5.54,5.54,0,0,1,0,8.25A6.31,6.31,0,0,1,406.3,33.58Z" transform="translate(0 0)"/><path class="cls-3" d="M428.71,52.86v20H415.92V37.29h12.14v6.77h.37a10,10,0,0,1,4.09-5.31,13.27,13.27,0,0,1,13.41-.2,11.74,11.74,0,0,1,4.33,4.74,14.73,14.73,0,0,1,1.52,6.88v22.7H439v-20a5.91,5.91,0,0,0-1.33-4.15,4.82,4.82,0,0,0-3.77-1.5,5.28,5.28,0,0,0-2.74.68,4.54,4.54,0,0,0-1.8,2A6.94,6.94,0,0,0,428.71,52.86Z" transform="translate(0 0)"/><path class="cls-3" d="M454.82,72.87V37.29H467.6V72.87Zm6.39-39.29a6.34,6.34,0,0,1-4.45-1.71,5.52,5.52,0,0,1,0-8.25,6.66,6.66,0,0,1,8.91,0,5.54,5.54,0,0,1,0,8.25A6.31,6.31,0,0,1,461.21,33.58Z" transform="translate(0 0)"/><path class="cls-3" d="M503.35,48.87H491.58a3.19,3.19,0,0,0-.76-1.87,4.38,4.38,0,0,0-1.73-1.22,6.24,6.24,0,0,0-2.33-.43,6,6,0,0,0-2.82.61,1.81,1.81,0,0,0-1.16,1.71,1.91,1.91,0,0,0,.68,1.46,5.63,5.63,0,0,0,2.75,1l7.23,1.3c3.64.66,6.36,1.78,8.14,3.35a8,8,0,0,1,2.7,6.29A10.36,10.36,0,0,1,502,67.7a14.29,14.29,0,0,1-6.09,4.3,23.72,23.72,0,0,1-8.79,1.52q-8.16,0-12.76-3.33a11.94,11.94,0,0,1-5.13-8.81H482A3.6,3.6,0,0,0,483.63,64a6.54,6.54,0,0,0,3.6.91,6.28,6.28,0,0,0,2.91-.6,1.9,1.9,0,0,0,1.16-1.71,1.87,1.87,0,0,0-1-1.62,9.11,9.11,0,0,0-3.07-1l-6.3-1.11c-3.63-.63-6.35-1.84-8.16-3.61a9.13,9.13,0,0,1-2.68-6.86,9.89,9.89,0,0,1,2-6.29,12.33,12.33,0,0,1,5.68-3.94,25.58,25.58,0,0,1,8.77-1.35q7.71,0,12.17,3.2A10.86,10.86,0,0,1,503.35,48.87Z" transform="translate(0 0)"/><path class="cls-3" d="M527.14,37.29v9.27H503.7V37.29Zm-18.9-8.52H521V61.43a2.71,2.71,0,0,0,.25,1.24,1.63,1.63,0,0,0,.79.74,3.37,3.37,0,0,0,1.37.24,7.11,7.11,0,0,0,1.35-.14c.52-.09.9-.17,1.15-.23l1.85,9c-.57.17-1.38.38-2.44.63a22.93,22.93,0,0,1-3.76.48,18,18,0,0,1-7.39-.91,8.77,8.77,0,0,1-4.5-3.63,11.53,11.53,0,0,1-1.46-6.21Z" transform="translate(0 0)"/><path class="cls-3" d="M545.75,73.52a20.59,20.59,0,0,1-9.81-2.19,15.06,15.06,0,0,1-6.32-6.3,20.48,20.48,0,0,1-2.22-9.86,20,20,0,0,1,2.23-9.63,15.84,15.84,0,0,1,6.28-6.42,19.08,19.08,0,0,1,9.56-2.29,20.36,20.36,0,0,1,7.3,1.25,15.27,15.27,0,0,1,5.58,3.62,16.12,16.12,0,0,1,3.57,5.76,22,22,0,0,1,1.25,7.62v3H531.39V51h20a5,5,0,0,0-.77-2.7,5.32,5.32,0,0,0-2-1.83,6.06,6.06,0,0,0-2.86-.66,6.22,6.22,0,0,0-2.85.66,5.43,5.43,0,0,0-2.07,1.81A5.14,5.14,0,0,0,540,51V58.6a6.46,6.46,0,0,0,.72,3.06,5.19,5.19,0,0,0,2.07,2.11,6.42,6.42,0,0,0,3.24.76,7.45,7.45,0,0,0,2.42-.37,5.32,5.32,0,0,0,1.89-1.07,4.37,4.37,0,0,0,1.16-1.71h11.67a13.19,13.19,0,0,1-2.85,6.43A14.67,14.67,0,0,1,554.38,72,23,23,0,0,1,545.75,73.52Zm-4.63-40.68-7-10.37H545.1l4.45,10.37Z" transform="translate(0 0)"/><path class="cls-3" d="M565.1,72.87V37.29h12.41v6.77h.37a10.06,10.06,0,0,1,3.1-5.49,7.59,7.59,0,0,1,5-1.74,10.19,10.19,0,0,1,1.65.13,11.49,11.49,0,0,1,1.59.35V48.23a11.21,11.21,0,0,0-2.34-.49,20.57,20.57,0,0,0-2.39-.16,6.77,6.77,0,0,0-3.37.84,6.19,6.19,0,0,0-2.35,2.36,7.16,7.16,0,0,0-.86,3.56V72.87Z" transform="translate(0 0)"/><path class="cls-3" d="M605.11,73.52a20.59,20.59,0,0,1-9.81-2.19A15.14,15.14,0,0,1,589,65a20.6,20.6,0,0,1-2.21-9.86A19.91,19.91,0,0,1,589,45.54a15.88,15.88,0,0,1,6.27-6.42,19.09,19.09,0,0,1,9.57-2.29,20.36,20.36,0,0,1,7.3,1.25,15.35,15.35,0,0,1,5.58,3.62,16.41,16.41,0,0,1,3.57,5.76,22,22,0,0,1,1.25,7.62v3H590.75V51h20a5,5,0,0,0-.78-2.7,5.22,5.22,0,0,0-2-1.83,6.09,6.09,0,0,0-2.86-.66,6.16,6.16,0,0,0-2.85.66,5.28,5.28,0,0,0-2.07,1.81,5,5,0,0,0-.83,2.72V58.6a6.34,6.34,0,0,0,.72,3.06,5.23,5.23,0,0,0,2.06,2.11,6.48,6.48,0,0,0,3.25.76,7.49,7.49,0,0,0,2.42-.37,5.19,5.19,0,0,0,1.88-1.07,4.17,4.17,0,0,0,1.16-1.71h11.68a13.19,13.19,0,0,1-2.85,6.43A14.67,14.67,0,0,1,613.74,72,23.07,23.07,0,0,1,605.11,73.52Z" transform="translate(0 0)"/><path class="cls-3" d="M25.51,128.73V111.28h4.74v13.63h7.06v3.82Z" transform="translate(0 0)"/><path class="cls-3" d="M44.36,129a7.66,7.66,0,0,1-3.61-.8,5.55,5.55,0,0,1-2.33-2.32,7.6,7.6,0,0,1-.81-3.63,7.29,7.29,0,0,1,.82-3.54,5.83,5.83,0,0,1,2.3-2.37,7.08,7.08,0,0,1,3.52-.84,7.41,7.41,0,0,1,2.69.46A5.64,5.64,0,0,1,49,117.26a6,6,0,0,1,1.32,2.12,8.24,8.24,0,0,1,.46,2.81v1.09H39.07v-2.59h7.37a1.86,1.86,0,0,0-.29-1,1.92,1.92,0,0,0-.74-.67,2.26,2.26,0,0,0-1-.24,2.31,2.31,0,0,0-1,.24,2,2,0,0,0-.76.67,1.85,1.85,0,0,0-.31,1v2.79a2.33,2.33,0,0,0,.27,1.13,1.82,1.82,0,0,0,.76.77,2.33,2.33,0,0,0,1.19.28,2.82,2.82,0,0,0,.89-.13,2,2,0,0,0,.69-.4,1.45,1.45,0,0,0,.43-.63h4.3a4.92,4.92,0,0,1-1.05,2.37,5.38,5.38,0,0,1-2.19,1.55A8.32,8.32,0,0,1,44.36,129Z" transform="translate(0 0)"/><path class="cls-3" d="M55.05,133.64v-18h4.67v2.29h.1a4,4,0,0,1,.75-1.23,3.61,3.61,0,0,1,1.23-.89,3.94,3.94,0,0,1,1.7-.34,4.78,4.78,0,0,1,2.47.69,5.06,5.06,0,0,1,1.91,2.17,10.37,10.37,0,0,1,0,7.62A5.12,5.12,0,0,1,66,128.17a4.74,4.74,0,0,1-2.57.73,4.21,4.21,0,0,1-1.64-.3,3.66,3.66,0,0,1-1.23-.83,3.61,3.61,0,0,1-.78-1.19h-.07v7.06Zm4.6-11.45a4.85,4.85,0,0,0,.25,1.65,2.41,2.41,0,0,0,.72,1.07,1.72,1.72,0,0,0,1.11.38,1.66,1.66,0,0,0,1.1-.37,2.25,2.25,0,0,0,.7-1.07,5.9,5.9,0,0,0,0-3.33,2.22,2.22,0,0,0-.7-1.06,1.67,1.67,0,0,0-1.1-.38,1.72,1.72,0,0,0-1.11.38,2.32,2.32,0,0,0-.72,1.06A4.85,4.85,0,0,0,59.65,122.19Z" transform="translate(0 0)"/><path class="cls-3" d="M69.39,128.73V115.64H74v2.49h.14a3.76,3.76,0,0,1,1.14-2,2.75,2.75,0,0,1,1.82-.64,4.07,4.07,0,0,1,.61,0,3.63,3.63,0,0,1,.59.13v4a4.35,4.35,0,0,0-.86-.17,7.78,7.78,0,0,0-.88-.06,2.46,2.46,0,0,0-1.24.31,2.14,2.14,0,0,0-.87.87,2.58,2.58,0,0,0-.31,1.3v6.82Z" transform="translate(0 0)"/><path class="cls-3" d="M84.15,129a7.32,7.32,0,0,1-3.65-.85,5.72,5.72,0,0,1-2.33-2.37,8.1,8.1,0,0,1,0-7.06,5.72,5.72,0,0,1,2.33-2.37,8.26,8.26,0,0,1,7.3,0,5.7,5.7,0,0,1,2.32,2.37,8.1,8.1,0,0,1,0,7.06,5.7,5.7,0,0,1-2.32,2.37A7.35,7.35,0,0,1,84.15,129Zm0-3.48a1.45,1.45,0,0,0,1-.4,2.53,2.53,0,0,0,.68-1.14,6.89,6.89,0,0,0,0-3.53,2.65,2.65,0,0,0-.68-1.14,1.45,1.45,0,0,0-1-.4,1.55,1.55,0,0,0-1.08.4,2.57,2.57,0,0,0-.69,1.14,6.61,6.61,0,0,0,0,3.53,2.46,2.46,0,0,0,.69,1.14A1.55,1.55,0,0,0,84.18,125.49Z" transform="translate(0 0)"/><path class="cls-3" d="M98,133.78a9.33,9.33,0,0,1-3.37-.55,5.23,5.23,0,0,1-2.18-1.5,3.83,3.83,0,0,1-.86-2.15h4.53a1,1,0,0,0,.34.58,1.88,1.88,0,0,0,.71.34,4,4,0,0,0,1,.11,2.6,2.6,0,0,0,1.52-.43,1.69,1.69,0,0,0,.6-1.48v-2.22h-.14a2.8,2.8,0,0,1-.78,1.13,3.67,3.67,0,0,1-1.27.71,5.31,5.31,0,0,1-1.63.24,5.14,5.14,0,0,1-2.57-.65,4.6,4.6,0,0,1-1.88-2,8.36,8.36,0,0,1-.7-3.67,8.73,8.73,0,0,1,.74-3.86,5.06,5.06,0,0,1,1.91-2.17,4.78,4.78,0,0,1,2.47-.69,4,4,0,0,1,1.7.34,3.61,3.61,0,0,1,1.23.89,4,4,0,0,1,.75,1.23h.1v-2.29h4.7V128.7a4.42,4.42,0,0,1-.85,2.73,5.35,5.35,0,0,1-2.41,1.74A9.77,9.77,0,0,1,98,133.78Zm.17-8.56a1.76,1.76,0,0,0,1.11-.36,2.31,2.31,0,0,0,.72-1,4.9,4.9,0,0,0,.25-1.63,5.11,5.11,0,0,0-.25-1.67,2.32,2.32,0,0,0-.72-1.06,1.81,1.81,0,0,0-2.22,0,2.28,2.28,0,0,0-.69,1.06,4.85,4.85,0,0,0-.25,1.67,4.77,4.77,0,0,0,.25,1.65,2.23,2.23,0,0,0,.69,1A1.81,1.81,0,0,0,98.12,125.22Z" transform="translate(0 0)"/><path class="cls-3" d="M106,128.73V115.64h4.57v2.49h.14a3.69,3.69,0,0,1,1.13-2,2.78,2.78,0,0,1,1.83-.64,4.07,4.07,0,0,1,.61,0,3.51,3.51,0,0,1,.58.13v4a4.21,4.21,0,0,0-.86-.17,7.62,7.62,0,0,0-.87-.06,2.43,2.43,0,0,0-1.24.31,2.14,2.14,0,0,0-.87.87,2.58,2.58,0,0,0-.31,1.3v6.82Z" transform="translate(0 0)"/><path class="cls-3" d="M120.74,129a7.66,7.66,0,0,1-3.61-.8,5.6,5.6,0,0,1-2.33-2.32,7.6,7.6,0,0,1-.81-3.63,7.29,7.29,0,0,1,.82-3.54,5.79,5.79,0,0,1,2.31-2.37,7.05,7.05,0,0,1,3.52-.84,7.35,7.35,0,0,1,2.68.46,5.77,5.77,0,0,1,2.06,1.33,6.17,6.17,0,0,1,1.31,2.12,8,8,0,0,1,.46,2.81v1.09H115.46v-2.59h7.36a1.86,1.86,0,0,0-.29-1,1.92,1.92,0,0,0-.74-.67,2.26,2.26,0,0,0-1.05-.24,2.31,2.31,0,0,0-1,.24,2,2,0,0,0-.76.67,1.84,1.84,0,0,0-.3,1v2.79a2.33,2.33,0,0,0,.26,1.13,1.88,1.88,0,0,0,.76.77,2.35,2.35,0,0,0,1.19.28,2.77,2.77,0,0,0,.89-.13,2.1,2.1,0,0,0,.7-.4,1.52,1.52,0,0,0,.42-.63h4.3a4.92,4.92,0,0,1-1.05,2.37,5.41,5.41,0,0,1-2.18,1.55A8.41,8.41,0,0,1,120.74,129ZM119,114l-2.56-3.81h4l1.64,3.81Z" transform="translate(0 0)"/><path class="cls-3" d="M139.82,119.9H135.5a1.25,1.25,0,0,0-.29-.69,1.64,1.64,0,0,0-.63-.45,2.39,2.39,0,0,0-.86-.15,2.25,2.25,0,0,0-1,.22.66.66,0,0,0-.42.63.68.68,0,0,0,.25.54,2.09,2.09,0,0,0,1,.38l2.66.48a6.07,6.07,0,0,1,3,1.23,3,3,0,0,1,1,2.31,3.85,3.85,0,0,1-.84,2.43,5.2,5.2,0,0,1-2.24,1.58,8.58,8.58,0,0,1-3.23.56,7.85,7.85,0,0,1-4.69-1.23,4.34,4.34,0,0,1-1.89-3.24H132a1.3,1.3,0,0,0,.62,1,2.36,2.36,0,0,0,1.32.34,2.26,2.26,0,0,0,1.07-.22.7.7,0,0,0,.43-.63.69.69,0,0,0-.37-.6,3.32,3.32,0,0,0-1.13-.36l-2.32-.41a5.51,5.51,0,0,1-3-1.33,3.34,3.34,0,0,1-1-2.52,3.58,3.58,0,0,1,.72-2.31,4.49,4.49,0,0,1,2.08-1.45,9.49,9.49,0,0,1,3.23-.5,7.53,7.53,0,0,1,4.48,1.18A4,4,0,0,1,139.82,119.9Z" transform="translate(0 0)"/><path class="cls-3" d="M149.08,128.9a4.74,4.74,0,0,1-2.57-.73,5.12,5.12,0,0,1-1.87-2.22,10.51,10.51,0,0,1,0-7.62,5.06,5.06,0,0,1,1.91-2.17,4.81,4.81,0,0,1,2.47-.69,3.94,3.94,0,0,1,1.7.34,3.61,3.61,0,0,1,1.23.89,4,4,0,0,1,.75,1.23h.07v-6.65h4.7v17.45h-4.67v-2.15h-.1a3.61,3.61,0,0,1-.78,1.19,3.66,3.66,0,0,1-1.23.83A4.21,4.21,0,0,1,149.08,128.9Zm1.74-3.61a1.72,1.72,0,0,0,1.11-.38,2.41,2.41,0,0,0,.72-1.07,5.64,5.64,0,0,0,0-3.32,2.32,2.32,0,0,0-.72-1.06,1.72,1.72,0,0,0-1.11-.38,1.67,1.67,0,0,0-1.1.38,2.22,2.22,0,0,0-.7,1.06,5.9,5.9,0,0,0,0,3.33,2.25,2.25,0,0,0,.7,1.07A1.66,1.66,0,0,0,150.82,125.29Z" transform="translate(0 0)"/><path class="cls-3" d="M164.89,129a7.69,7.69,0,0,1-3.61-.8,5.58,5.58,0,0,1-2.32-2.32,7.6,7.6,0,0,1-.82-3.63,7.4,7.4,0,0,1,.82-3.54,5.92,5.92,0,0,1,2.31-2.37,7.08,7.08,0,0,1,3.52-.84,7.41,7.41,0,0,1,2.69.46,5.72,5.72,0,0,1,2.05,1.33,5.88,5.88,0,0,1,1.31,2.12,8,8,0,0,1,.46,2.81v1.09H159.61v-2.59H167a1.85,1.85,0,0,0-.28-1A2,2,0,0,0,166,119a2.27,2.27,0,0,0-1.06-.24,2.24,2.24,0,0,0-1,.24,2,2,0,0,0-.77.67,1.84,1.84,0,0,0-.3,1v2.79a2.33,2.33,0,0,0,.27,1.13,1.8,1.8,0,0,0,.75.77,2.37,2.37,0,0,0,1.2.28,2.82,2.82,0,0,0,.89-.13,2,2,0,0,0,.69-.4,1.54,1.54,0,0,0,.43-.63h4.29a4.74,4.74,0,0,1-1.05,2.37,5.34,5.34,0,0,1-2.18,1.55A8.41,8.41,0,0,1,164.89,129Z" transform="translate(0 0)"/><path class="cls-3" d="M191.81,117.82H187a3.36,3.36,0,0,0-.26-1.08,2.8,2.8,0,0,0-.6-.84,2.55,2.55,0,0,0-.92-.54,3.51,3.51,0,0,0-1.22-.2,3.45,3.45,0,0,0-2,.58,3.59,3.59,0,0,0-1.25,1.67,7.14,7.14,0,0,0-.42,2.59,7.47,7.47,0,0,0,.43,2.69,3.25,3.25,0,0,0,3.22,2.16,3.91,3.91,0,0,0,1.18-.17,2.78,2.78,0,0,0,.9-.48,2.72,2.72,0,0,0,.63-.76,3,3,0,0,0,.32-1l4.81,0a6.44,6.44,0,0,1-.62,2.25,7.23,7.23,0,0,1-4,3.67,8.69,8.69,0,0,1-3.36.59,8.89,8.89,0,0,1-4.31-1,7.51,7.51,0,0,1-3-3,10.12,10.12,0,0,1-1.1-4.91,9.88,9.88,0,0,1,1.12-4.91,7.49,7.49,0,0,1,3-3,8.77,8.77,0,0,1,4.26-1,9.84,9.84,0,0,1,3,.45,7.28,7.28,0,0,1,2.44,1.32,6.53,6.53,0,0,1,1.69,2.12A8,8,0,0,1,191.81,117.82Z" transform="translate(0 0)"/><path class="cls-3" d="M199.13,129a7.29,7.29,0,0,1-3.64-.85,5.72,5.72,0,0,1-2.33-2.37,8.1,8.1,0,0,1,0-7.06,5.72,5.72,0,0,1,2.33-2.37,8.24,8.24,0,0,1,7.29,0,5.72,5.72,0,0,1,2.33,2.37,8.1,8.1,0,0,1,0,7.06,5.72,5.72,0,0,1-2.33,2.37A7.32,7.32,0,0,1,199.13,129Zm0-3.48a1.45,1.45,0,0,0,1-.4,2.52,2.52,0,0,0,.67-1.14,6.61,6.61,0,0,0,0-3.53,2.64,2.64,0,0,0-.67-1.14,1.45,1.45,0,0,0-1-.4,1.55,1.55,0,0,0-1.08.4,2.4,2.4,0,0,0-.69,1.14,6.61,6.61,0,0,0,0,3.53,2.31,2.31,0,0,0,.69,1.14A1.55,1.55,0,0,0,199.17,125.49Z" transform="translate(0 0)"/><path class="cls-3" d="M206.63,128.73V115.64h4.57v2.49h.13a3.76,3.76,0,0,1,1.14-2,2.78,2.78,0,0,1,1.83-.64,4.18,4.18,0,0,1,.61,0,3.75,3.75,0,0,1,.58.13v4a4.21,4.21,0,0,0-.86-.17,7.63,7.63,0,0,0-.88-.06,2.46,2.46,0,0,0-1.24.31,2.18,2.18,0,0,0-.86.87,2.58,2.58,0,0,0-.32,1.3v6.82Z" transform="translate(0 0)"/><path class="cls-3" d="M220.53,121.37v7.36h-4.71V115.64h4.47v2.49h.14a3.66,3.66,0,0,1,1.5-1.95,4.51,4.51,0,0,1,2.52-.71,4.46,4.46,0,0,1,2.42.64,4.32,4.32,0,0,1,1.59,1.74,5.45,5.45,0,0,1,.56,2.53v8.35h-4.71v-7.36a2.12,2.12,0,0,0-.49-1.53,1.75,1.75,0,0,0-1.38-.55,1.94,1.94,0,0,0-1,.25,1.64,1.64,0,0,0-.66.72A2.39,2.39,0,0,0,220.53,121.37Z" transform="translate(0 0)"/><path class="cls-3" d="M236.44,129a7.29,7.29,0,0,1-3.64-.85,5.66,5.66,0,0,1-2.33-2.37,8.1,8.1,0,0,1,0-7.06,5.66,5.66,0,0,1,2.33-2.37,8.24,8.24,0,0,1,7.29,0,5.72,5.72,0,0,1,2.33,2.37,8.1,8.1,0,0,1,0,7.06,5.72,5.72,0,0,1-2.33,2.37A7.32,7.32,0,0,1,236.44,129Zm0-3.48a1.45,1.45,0,0,0,1-.4,2.52,2.52,0,0,0,.67-1.14,6.61,6.61,0,0,0,0-3.53,2.64,2.64,0,0,0-.67-1.14,1.45,1.45,0,0,0-1-.4,1.55,1.55,0,0,0-1.08.4,2.4,2.4,0,0,0-.69,1.14,6.61,6.61,0,0,0,0,3.53,2.31,2.31,0,0,0,.69,1.14A1.55,1.55,0,0,0,236.48,125.49Z" transform="translate(0 0)"/><path class="cls-3" d="M252.43,123v-7.36h4.7v13.09h-4.47v-2.49h-.13a3.72,3.72,0,0,1-1.49,2,4.9,4.9,0,0,1-4.93.07,4.27,4.27,0,0,1-1.6-1.74,5.46,5.46,0,0,1-.57-2.54v-8.35h4.7V123a2.27,2.27,0,0,0,.5,1.53,1.75,1.75,0,0,0,1.38.55,1.92,1.92,0,0,0,1-.25,1.65,1.65,0,0,0,.67-.71A2.41,2.41,0,0,0,252.43,123Z" transform="translate(0 0)"/><path class="cls-3" d="M262,128.94a5.48,5.48,0,0,1-2.21-.42,3.24,3.24,0,0,1-1.5-1.25,3.86,3.86,0,0,1-.55-2.15,4.14,4.14,0,0,1,.37-1.84,3.28,3.28,0,0,1,1-1.25,5,5,0,0,1,1.53-.74,9.08,9.08,0,0,1,1.89-.33q1.1-.09,1.77-.21a2.27,2.27,0,0,0,1-.35.71.71,0,0,0,.3-.6v0a.91.91,0,0,0-.39-.79,1.73,1.73,0,0,0-1-.27,1.93,1.93,0,0,0-1.1.29,1.28,1.28,0,0,0-.51.9h-4.33a4.42,4.42,0,0,1,.77-2.2,4.75,4.75,0,0,1,2-1.62,7.6,7.6,0,0,1,3.25-.61,9,9,0,0,1,2.53.33,6.1,6.1,0,0,1,1.9.91,4,4,0,0,1,1.19,1.37,3.47,3.47,0,0,1,.42,1.69v9h-4.4v-1.84h-.1a3.81,3.81,0,0,1-.95,1.19,3.48,3.48,0,0,1-1.27.65A5.57,5.57,0,0,1,262,128.94Zm1.54-3a2.33,2.33,0,0,0,1-.22,2,2,0,0,0,.77-.64,1.7,1.7,0,0,0,.3-1V123c-.13.06-.26.1-.4.15l-.44.13-.5.11-.54.09a2.74,2.74,0,0,0-.89.28,1.3,1.3,0,0,0-.51.47,1.18,1.18,0,0,0-.17.62,1,1,0,0,0,.39.83A1.58,1.58,0,0,0,263.5,126Z" transform="translate(0 0)"/><path class="cls-3" d="M271.3,128.73V115.64H276v13.09Zm2.35-14.45a2.34,2.34,0,0,1-1.64-.63,2,2,0,0,1,0-3,2.45,2.45,0,0,1,3.28,0,2,2,0,0,1,0,3A2.32,2.32,0,0,1,273.65,114.28Z" transform="translate(0 0)"/><path class="cls-3" d="M281.89,111.28v17.45h-4.7V111.28Z" transform="translate(0 0)"/><path class="cls-3" d="M287.78,111.28v17.45h-4.7V111.28Z" transform="translate(0 0)"/><path class="cls-3" d="M295.24,129a7.69,7.69,0,0,1-3.61-.8,5.52,5.52,0,0,1-2.32-2.32,7.49,7.49,0,0,1-.82-3.63,7.4,7.4,0,0,1,.82-3.54,5.92,5.92,0,0,1,2.31-2.37,7.05,7.05,0,0,1,3.52-.84,7.35,7.35,0,0,1,2.68.46,5.68,5.68,0,0,1,2.06,1.33,5.88,5.88,0,0,1,1.31,2.12,8,8,0,0,1,.46,2.81v1.09H290v-2.59h7.36a1.85,1.85,0,0,0-.28-1,2,2,0,0,0-.74-.67,2.27,2.27,0,0,0-1.06-.24,2.31,2.31,0,0,0-1.05.24,2.05,2.05,0,0,0-.76.67,1.84,1.84,0,0,0-.3,1v2.79a2.44,2.44,0,0,0,.26,1.13,1.88,1.88,0,0,0,.76.77,2.37,2.37,0,0,0,1.2.28,2.82,2.82,0,0,0,.89-.13,2,2,0,0,0,.69-.4,1.54,1.54,0,0,0,.43-.63h4.29a4.92,4.92,0,0,1-1,2.37,5.41,5.41,0,0,1-2.18,1.55A8.41,8.41,0,0,1,295.24,129Z" transform="translate(0 0)"/></g></svg>